<svg xmlns="http://www.w3.org/2000/svg" viewBox="0 0 60 48">
  <path fill="#e8d095" d="M10 25.2H.4L14.9 0H24L10 25.2zM12 0l-.4.8c-5.6.3-9 2-9.7 6.4h-.7L1.4 0H12zm10.6 16.9h.8l-.5 8.3h-10l.4-.8c6.1-.5 8.6-3.3 9.3-7.5zM33.9 21.6h-4v2.1h4.6v1.5h-6.3V17h6.1v1.5h-4.4v1.8h4v1.3zM39.3 22h-1.8v3.2h-1.7V17h4.1c.6 0 1 .1 1.3.2.3.1.6.3.8.6.2.2.3.4.4.7.1.3.2.5.2.9s-.1.8-.3 1.2-.5.6-1 .8c.4.2.7.4.8.7.2.3.2.7.2 1.3v1.4c0 .2.1.4.3.5v.2h-1.9c-.1-.2-.1-.3-.1-.4 0-.2-.1-.5-.1-.7v-.8c0-.5-.1-.9-.3-1.1 0-.4-.4-.5-.9-.5zm1-1.5c.3-.2.5-.5.5-.9 0-.5-.2-.8-.5-1-.2-.1-.5-.1-.8-.1h-2v2.2h2c.4-.1.7-.1.8-.2zM47.6 25.2H44V17h3.6c.5 0 .9.1 1.3.2.6.2 1 .5 1.4 1 .3.4.5.9.6 1.3.1.5.2.9.2 1.4 0 1.1-.2 2-.7 2.8-.6 1-1.5 1.5-2.8 1.5zm1.3-6.1c-.3-.4-.8-.7-1.6-.7h-1.6v5.4h1.6c.8 0 1.4-.4 1.7-1.2.2-.4.3-1 .3-1.6 0-.8-.1-1.5-.4-1.9zM57.2 23.5h-3l-.6 1.7h-1.8l2.9-8.3h2l2.9 8.3h-1.9l-.5-1.7zm-.5-1.4-1-3.3-1.1 3.3h2.1zM8.3 41.2V40h6.3v7.6h-1.2v-2.5l-.9 1.2c-.3.4-.7.7-1.2.9-.4.3-.9.4-1.5.6-.5.1-1.2.2-1.9.2-.9 0-1.8-.2-2.6-.5s-1.5-.8-2-1.5c-.6-.6-1-1.5-1.3-2.4-.3-1-.5-2.1-.5-3.4 0-1.1.1-2.1.4-3 .3-.9.7-1.7 1.3-2.4.6-.7 1.3-1.2 2.1-1.6.8-.4 1.9-.6 3-.6.8 0 1.5.1 2.2.3.7.2 1.3.5 1.8.9s1 .9 1.4 1.4c.4.6.6 1.3.8 2H13c-.1-.5-.3-1-.6-1.5-.3-.4-.6-.8-1-1.1-.4-.3-.9-.5-1.4-.7-.5-.2-1-.2-1.6-.2-1 0-1.8.2-2.5.5s-1.3.8-1.7 1.4c-.4.6-.8 1.4-1 2.2-.2.9-.3 1.8-.3 2.8 0 .8.1 1.6.4 2.3.2.7.6 1.4 1 1.9.5.6 1 1 1.7 1.3.7.3 1.4.5 2.3.5.4 0 .8 0 1.2-.1.4-.1.8-.2 1.2-.4.4-.2.8-.5 1.1-.8.3-.3.6-.7.9-1.2.2-.5.4-.9.5-1.4.1-.5.1-1 .2-1.6H8.3zM17.3 40.3c0-1.1.1-2.1.4-3 .3-.9.7-1.8 1.3-2.5s1.3-1.3 2.1-1.7c.8-.4 1.8-.6 2.9-.6 1.1 0 2.1.2 3 .6.9.4 1.6 1 2.2 1.7.6.7 1 1.5 1.3 2.5.3.9.4 2 .4 3 0 1.1-.1 2.1-.4 3-.3.9-.7 1.7-1.3 2.4-.6.7-1.3 1.3-2.1 1.7-.9.4-1.8.6-3 .6-1.1 0-2.1-.2-3-.6-.9-.4-1.6-1-2.1-1.7-.6-.7-1-1.5-1.3-2.4-.2-.9-.4-1.9-.4-3zm6.9 6.5c1 0 1.8-.2 2.5-.5.7-.4 1.2-.8 1.7-1.4.4-.6.8-1.3 1-2.1.2-.8.3-1.6.3-2.5 0-1-.1-1.9-.4-2.7-.3-.8-.6-1.5-1.1-2.1s-1.1-1-1.7-1.3c-.7-.3-1.4-.4-2.3-.4-.9 0-1.7.2-2.4.6-.7.4-1.3.9-1.7 1.5-.4.6-.8 1.3-1 2.1-.2.8-.3 1.6-.3 2.5 0 .9.1 1.7.3 2.5.2.8.5 1.5 1 2.1.4.6 1 1.1 1.7 1.4.6.1 1.4.3 2.4.3zM33.8 47.6V32.9h1.4v13.5H43v1.2h-9.2zM45.1 47.6V32.9h6.2c.4 0 .8.1 1.2.1.4.1.8.2 1.1.3.4.1.7.3 1 .6.5.4.9.8 1.2 1.3.3.5.6 1 .7 1.6.2.6.3 1.1.4 1.7.1.6.1 1.1.1 1.6s0 1-.1 1.5l-.3 1.5c-.1.5-.3.9-.5 1.4-.2.4-.5.8-.8 1.2-.3.4-.7.7-1.1.9-.4.2-.8.4-1.3.5-.4.1-.9.2-1.4.3-.5 0-1 .1-1.4.1h-5zm1.4-1.2h3.3c.6 0 1.2 0 1.8-.1.6-.1 1.1-.3 1.7-.6.5-.2.9-.6 1.2-1 .3-.4.6-.9.7-1.4.2-.5.3-1 .4-1.6s.1-1.1.1-1.6 0-1.1-.1-1.6c-.1-.6-.2-1.1-.4-1.6s-.4-1-.8-1.4c-.3-.4-.7-.8-1.3-1-.4-.2-1-.4-1.5-.4-.6-.1-1.2-.1-1.8-.1h-3.3v12.4z"/>
</svg>